<svg width="305" height="165" viewBox="0 0 305 165" fill="none" xmlns="http://www.w3.org/2000/svg">
<path d="M7.45455 104.909V95.6364L48.3636 30.9091H55.0909V45.2727H50.5455L19.6364 94.1818V94.9091H74.7273V104.909H7.45455ZM51.2727 124V102.091V97.7727V30.9091H62V124H51.2727ZM197.58 104.909V95.6364L238.489 30.9091H245.216V45.2727H240.67L209.761 94.1818V94.9091H264.852V104.909H197.58ZM241.398 124V102.091V97.7727V30.9091H252.125V124H241.398Z" fill="#D1451E"/>
<path d="M136.204 122.763C143.381 126.255 151.601 126.948 159.261 124.707C166.921 122.466 173.471 117.451 177.633 110.641C177.644 110.633 177.656 110.625 177.668 110.619C178.535 109.285 179.273 107.872 179.869 106.397C179.936 106.241 179.985 106.079 180.054 105.929C180.258 105.396 180.464 104.858 180.645 104.295C181.271 102.486 181.735 100.625 182.03 98.7335C185.84 77.1354 185.816 53.7317 166.222 36.4571C147.486 22.7741 119.267 27.5987 113.247 28.8375C106.992 29.6129 101.102 32.2066 96.3065 36.2971C91.5111 40.3877 88.0212 45.7953 86.2692 51.8501C84.5173 57.9048 84.5803 64.3405 86.4504 70.3597C88.3205 76.379 91.9156 81.7173 96.7903 85.7132C96.8572 85.7951 96.9057 85.8829 96.9807 85.9683C97.4852 86.2881 97.9712 86.6345 98.4642 86.9566C98.9849 87.3341 99.5182 87.692 100.067 88.0371C114.294 98.1308 124.65 113.506 124.65 113.506L124.94 113.746C127.94 117.526 131.747 120.587 136.083 122.705L136.164 122.774L136.204 122.763Z" fill="#F4F4F4"/>
<path d="M162.579 65.4982C162.577 69.7192 161.324 73.8449 158.978 77.3538C156.632 80.8627 153.298 83.5972 149.398 85.2115C145.498 86.8259 141.207 87.2476 137.067 86.4234C132.927 85.5992 129.125 83.566 126.141 80.581C123.156 77.596 121.124 73.7932 120.301 69.6533C119.477 65.5134 119.9 61.2223 121.515 57.3226C123.13 53.4229 125.866 50.0896 129.375 47.7442C132.884 45.3989 137.01 44.1467 141.231 44.146C144.035 44.1461 146.811 44.6986 149.402 45.7717C151.992 46.8449 154.345 48.4178 156.328 50.4005C158.31 52.3833 159.882 54.7371 160.955 57.3276C162.027 59.9181 162.579 62.6944 162.579 65.4982Z" fill="#FFD504"/>
<path d="M140.067 52.0055V51.4606L140.123 52.0055L139.818 48.6471C139.901 48.6377 139.984 48.6346 140.067 48.6379C141.515 48.5386 154.749 49.2417 157.776 64.6183L154.459 65.2544C151.879 52.1544 141.148 52.1048 140.067 52.0055Z" fill="#FFF806"/>
</svg>
