<svg width="807" height="184" viewBox="0 0 807 184" fill="none" xmlns="http://www.w3.org/2000/svg">
<path d="M56.9375 148.562C63.2708 148.562 69.75 147.125 76.375 144.25C83.0417 141.333 88.3125 137.062 92.1875 131.438C92.1875 130.896 91.9375 130.438 91.4375 130.062C90.9792 129.688 90.4583 129.5 89.875 129.5C83.625 137.083 74.4375 140.875 62.3125 140.875C49.5208 140.875 39.8542 137.021 33.3125 129.312C26.8125 121.562 23.5625 111.938 23.5625 100.438C23.5625 95.2292 24.125 90.2083 25.25 85.375C26.4167 80.5 28.2083 75.8542 30.625 71.4375C33.0833 66.9792 36.5625 63.375 41.0625 60.625C45.6042 57.875 50.8958 56.5 56.9375 56.5C61.0625 56.5 64.875 57.1458 68.375 58.4375C71.875 59.7292 74.75 61.25 77 63C79.25 64.75 81.4375 67.1042 83.5625 70.0625C85.7292 72.9792 87.3542 75.5208 88.4375 77.6875C89.5625 79.8125 90.8958 82.5208 92.4375 85.8125C93.6875 85.6458 94.4583 85.1875 94.75 84.4375C91.6667 72.0625 87 63.5833 80.75 59C74.5417 54.375 66.6042 52.0625 56.9375 52.0625C53.0208 52.0625 49.0208 52.5417 44.9375 53.5C40.8542 54.4167 36.6458 56.0833 32.3125 58.5C28.0208 60.875 24.2292 63.8333 20.9375 67.375C17.6458 70.875 14.9375 75.5 12.8125 81.25C10.6875 86.9583 9.625 93.3542 9.625 100.438C9.625 107.521 10.6875 113.917 12.8125 119.625C14.9375 125.333 17.6458 129.938 20.9375 133.438C24.2292 136.938 28.0208 139.875 32.3125 142.25C36.6458 144.583 40.8542 146.208 44.9375 147.125C49.0208 148.083 53.0208 148.562 56.9375 148.562ZM90.875 88.625C89.0833 84.625 87.4375 81.3333 85.9375 78.75C84.4375 76.125 82.4375 73.2083 79.9375 70C77.4375 66.75 74.4583 64.2292 71 62.4375C67.5417 60.6458 63.6667 59.5625 59.375 59.1875C54.625 59.5625 50.4792 61.0833 46.9375 63.75C43.3958 66.375 40.6458 69.75 38.6875 73.875C36.7708 78 35.3542 82.2917 34.4375 86.75C33.5625 91.1667 33.125 95.7292 33.125 100.438C33.125 110.938 35.7708 119.75 41.0625 126.875C46.3542 134 54.25 137.812 64.75 138.312C74.9167 137.812 82.8958 134.021 88.6875 126.938C90.3125 126.938 91.7292 127.479 92.9375 128.562C94.1458 129.604 94.75 130.854 94.75 132.312C90.5417 138.438 84.8542 143.104 77.6875 146.312C70.5208 149.521 63.6042 151.125 56.9375 151.125C52.7708 151.125 48.5417 150.625 44.25 149.625C40 148.667 35.5833 146.958 31 144.5C26.4583 142 22.4375 138.896 18.9375 135.188C15.4375 131.479 12.5833 126.625 10.375 120.625C8.16667 114.583 7.0625 107.854 7.0625 100.438C7.0625 92.6875 8.20833 85.7708 10.5 79.6875C12.7917 73.5625 15.7292 68.6667 19.3125 65C22.8958 61.3333 27.0833 58.2917 31.875 55.875C36.6667 53.4167 41.3125 51.75 45.8125 50.875C50.3542 49.9583 54.9167 49.5 59.5 49.5C65.75 49.5 72.5417 50.3333 79.875 52C87.2083 53.6667 92.4583 54.7083 95.625 55.125C94.25 60.5 93.7083 65.2292 94 69.3125C94.2917 73.3542 95.4792 78.3125 97.5625 84.1875C96.3542 86.6458 94.125 88.125 90.875 88.625ZM139.562 93.25C143.854 93.25 147.25 95.3125 149.75 99.4375C152.292 103.521 153.562 109.875 153.562 118.5C153.562 127.125 152.292 133.479 149.75 137.562C147.25 141.646 143.854 143.688 139.562 143.688C137.188 143.688 135.021 143.188 133.062 142.188C131.146 141.188 129.5 139.646 128.125 137.562C126.792 135.479 125.75 132.875 125 129.75C124.25 126.583 123.875 122.833 123.875 118.5C123.875 114.208 124.25 110.479 125 107.312C125.75 104.104 126.792 101.479 128.125 99.4375C129.5 97.3542 131.146 95.8125 133.062 94.8125C135.021 93.7708 137.188 93.25 139.562 93.25ZM139.562 147.812C143.438 147.812 146.917 147.083 150 145.625C153.083 144.167 155.708 142.146 157.875 139.562C160.083 136.938 161.771 133.833 162.938 130.25C164.104 126.667 164.688 122.75 164.688 118.5C164.688 114.25 164.104 110.333 162.938 106.75C161.771 103.167 160.083 100.083 157.875 97.5C155.708 94.875 153.083 92.8333 150 91.375C146.917 89.9167 143.438 89.1875 139.562 89.1875C135.438 89.1875 131.708 89.9167 128.375 91.375C125.042 92.8333 122.208 94.8542 119.875 97.4375C117.583 100.021 115.812 103.125 114.562 106.75C113.312 110.333 112.688 114.25 112.688 118.5C112.688 122.792 113.312 126.729 114.562 130.312C115.812 133.896 117.583 137 119.875 139.625C122.208 142.208 125.042 144.229 128.375 145.688C131.708 147.104 135.438 147.812 139.562 147.812ZM141.75 86.625C146.792 86.625 151.271 87.3958 155.188 88.9375C159.146 90.4792 162.479 92.6667 165.188 95.5C167.896 98.2917 169.958 101.646 171.375 105.562C172.792 109.479 173.5 113.792 173.5 118.5C173.5 123.167 172.792 127.458 171.375 131.375C169.958 135.292 167.896 138.667 165.188 141.5C162.521 144.292 159.208 146.458 155.25 148C151.292 149.583 146.792 150.375 141.75 150.375C136.75 150.375 132.271 149.583 128.312 148C124.396 146.458 121.083 144.292 118.375 141.5C115.708 138.667 113.667 135.312 112.25 131.438C110.833 127.521 110.125 123.208 110.125 118.5C110.125 113.792 110.833 109.479 112.25 105.562C113.667 101.646 115.729 98.2917 118.438 95.5C121.146 92.6667 124.458 90.4792 128.375 88.9375C132.292 87.3958 136.75 86.625 141.75 86.625ZM132.688 118.5C132.688 131.958 135.708 139.417 141.75 140.875C147.917 139.417 151 131.958 151 118.5C151 105.167 147.917 97.6875 141.75 96.0625C135.708 97.6875 132.688 105.167 132.688 118.5ZM215.312 93.25C219.604 93.25 223 95.3125 225.5 99.4375C228.042 103.521 229.312 109.875 229.312 118.5C229.312 127.125 228.042 133.479 225.5 137.562C223 141.646 219.604 143.688 215.312 143.688C212.938 143.688 210.771 143.188 208.812 142.188C206.896 141.188 205.25 139.646 203.875 137.562C202.542 135.479 201.5 132.875 200.75 129.75C200 126.583 199.625 122.833 199.625 118.5C199.625 114.208 200 110.479 200.75 107.312C201.5 104.104 202.542 101.479 203.875 99.4375C205.25 97.3542 206.896 95.8125 208.812 94.8125C210.771 93.7708 212.938 93.25 215.312 93.25ZM215.312 147.812C219.188 147.812 222.667 147.083 225.75 145.625C228.833 144.167 231.458 142.146 233.625 139.562C235.833 136.938 237.521 133.833 238.688 130.25C239.854 126.667 240.438 122.75 240.438 118.5C240.438 114.25 239.854 110.333 238.688 106.75C237.521 103.167 235.833 100.083 233.625 97.5C231.458 94.875 228.833 92.8333 225.75 91.375C222.667 89.9167 219.188 89.1875 215.312 89.1875C211.188 89.1875 207.458 89.9167 204.125 91.375C200.792 92.8333 197.958 94.8542 195.625 97.4375C193.333 100.021 191.562 103.125 190.312 106.75C189.062 110.333 188.438 114.25 188.438 118.5C188.438 122.792 189.062 126.729 190.312 130.312C191.562 133.896 193.333 137 195.625 139.625C197.958 142.208 200.792 144.229 204.125 145.688C207.458 147.104 211.188 147.812 215.312 147.812ZM217.5 86.625C222.542 86.625 227.021 87.3958 230.938 88.9375C234.896 90.4792 238.229 92.6667 240.938 95.5C243.646 98.2917 245.708 101.646 247.125 105.562C248.542 109.479 249.25 113.792 249.25 118.5C249.25 123.167 248.542 127.458 247.125 131.375C245.708 135.292 243.646 138.667 240.938 141.5C238.271 144.292 234.958 146.458 231 148C227.042 149.583 222.542 150.375 217.5 150.375C212.5 150.375 208.021 149.583 204.062 148C200.146 146.458 196.833 144.292 194.125 141.5C191.458 138.667 189.417 135.312 188 131.438C186.583 127.521 185.875 123.208 185.875 118.5C185.875 113.792 186.583 109.479 188 105.562C189.417 101.646 191.479 98.2917 194.188 95.5C196.896 92.6667 200.208 90.4792 204.125 88.9375C208.042 87.3958 212.5 86.625 217.5 86.625ZM208.438 118.5C208.438 131.958 211.458 139.417 217.5 140.875C223.667 139.417 226.75 131.958 226.75 118.5C226.75 105.167 223.667 97.6875 217.5 96.0625C211.458 97.6875 208.438 105.167 208.438 118.5ZM295.688 90.5625C295.188 91.6875 295.188 92.6667 295.688 93.5C296.979 93.6667 298.167 94 299.25 94.5C300.375 94.9583 301.167 95.6458 301.625 96.5625C302.083 97.4375 301.688 98.4375 300.438 99.5625L287.75 111.562H282.75C282.667 99.1875 282.625 79.5625 282.625 52.6875C282.208 51.9375 281.479 51.375 280.438 51C274.896 53.6667 268.458 55.375 261.125 56.125C260.875 57.1667 260.875 58.1458 261.125 59.0625C266.75 59.3542 270.771 60.2083 273.188 61.625C273.188 66.8333 273.25 74.6667 273.375 85.125C273.5 95.5833 273.562 105 273.562 113.375C273.562 121.708 273.375 129.729 273 137.438C272.917 140.521 269.375 142.521 262.375 143.438C261.875 144.479 261.875 145.458 262.375 146.375C267.875 146.125 273.167 146 278.25 146C283.208 146 288.417 146.125 293.875 146.375C294.417 145.458 294.417 144.479 293.875 143.438C286.708 142.521 283.125 140.521 283.125 137.438C282.875 132.812 282.75 125.521 282.75 115.562H287.625L304.625 137.438C307.125 140.604 305.771 142.479 300.562 143.062C300.062 144.062 300.062 145.042 300.562 146H314.875C319.583 146 324.875 146.125 330.75 146.375C331.25 145.458 331.25 144.479 330.75 143.438C325.458 142.854 321.75 141.833 319.625 140.375C318.417 139.583 317.354 138.604 316.438 137.438L295.188 110.688L306.188 99.5625C309.354 96.3125 314.604 94.2917 321.938 93.5C322.271 92.5 322.271 91.5208 321.938 90.5625C312.646 91.1042 303.896 91.1042 295.688 90.5625ZM294.562 88C305.812 88.4167 315.521 88.375 323.688 87.875C324.729 90.4583 324.792 93.1458 323.875 95.9375C316.083 96.7292 310.792 98.5208 308 101.312L302.062 107.375L324.75 135.875C326.125 137.583 327.333 138.792 328.375 139.5C329.458 140.167 331.104 140.708 333.312 141.125C334.271 143.875 334.188 146.396 333.062 148.688C324.521 148.188 313.375 148.188 299.625 148.688C298.375 146.062 298.208 143.542 299.125 141.125C301.625 140.625 302.396 139.396 301.438 137.438L291.562 124.875C291.562 130.25 291.708 134.438 292 137.438C292.167 139.396 293.229 140.625 295.188 141.125C296.021 143.333 295.938 145.854 294.938 148.688C283.562 148.438 272.125 148.438 260.625 148.688C258.917 146.146 258.833 143.625 260.375 141.125C267 140.292 270.375 139.021 270.5 137.312C270.667 133.188 270.75 124 270.75 109.75C270.75 106.25 270.729 101.021 270.688 94.0625C270.646 87.0625 270.625 82.0208 270.625 78.9375V63.1875C267.875 62.3125 264.062 61.75 259.188 61.5C258.271 59.0417 258.271 56.3958 259.188 53.5625C265.021 53.0625 272.417 51.1875 281.375 47.9375C285.875 48.2708 289.229 49.6458 291.438 52.0625V104.375L298.625 97.625C299.208 97.0417 299.167 96.6042 298.5 96.3125C298.167 96.2292 296.792 95.9792 294.375 95.5625C293.125 93.1875 293.188 90.6667 294.562 88ZM355 58.1875C364.417 58.1875 369.125 61.6042 369.125 68.4375C369.125 75.2708 364.417 78.6875 355 78.6875C353.583 78.6875 352.25 78.4167 351 77.875C349.792 77.3333 348.729 76.6042 347.812 75.6875C346.896 74.7292 346.167 73.625 345.625 72.375C345.083 71.125 344.812 69.8125 344.812 68.4375C344.812 67.0625 345.083 65.75 345.625 64.5C346.167 63.25 346.896 62.1667 347.812 61.25C348.729 60.2917 349.792 59.5417 351 59C352.25 58.4583 353.583 58.1875 355 58.1875ZM349.25 63.0625C348 64.5208 347.375 66.3125 347.375 68.4375C347.375 69.5208 347.542 70.5417 347.875 71.5C348.25 72.4167 348.75 73.2292 349.375 73.9375C350 74.6042 350.708 75.1458 351.5 75.5625C352.333 75.9375 353.208 76.125 354.125 76.125C355 76.125 355.854 75.9375 356.688 75.5625C357.521 75.1458 358.25 74.6042 358.875 73.9375C359.5 73.2292 360 72.4167 360.375 71.5C360.75 70.5417 360.938 69.5208 360.938 68.4375C360.938 67.3542 360.75 66.3542 360.375 65.4375C360 64.4792 359.5 63.6667 358.875 63C358.25 62.2917 357.521 61.75 356.688 61.375C355.854 60.9583 355 60.75 354.125 60.75C353.25 60.75 352.396 60.9375 351.562 61.3125C350.729 61.6875 349.958 62.2708 349.25 63.0625ZM374.5 143.125C364.583 142.208 359.583 140.208 359.5 137.125C359.083 124.625 358.917 109.271 359 91.0625C358.667 90.3958 357.938 89.8542 356.812 89.4375C351.021 92.1458 345 93.8542 338.75 94.5625C338.5 95.5625 338.5 96.5417 338.75 97.5C343.458 97.75 347.042 98.6042 349.5 100.062C349.875 115.604 349.833 127.958 349.375 137.125C349.292 140.208 345.75 142.208 338.75 143.125C338.333 144.167 338.333 145.188 338.75 146.188C350.708 145.938 362.625 145.938 374.5 146.188C374.917 145.188 374.917 144.167 374.5 143.125ZM376.812 140.812C377.479 143.396 377.479 145.917 376.812 148.375C363.396 147.958 349.958 147.958 336.5 148.375C335.792 145.917 335.792 143.396 336.5 140.812C343.292 140.146 346.729 138.875 346.812 137C347.354 125.333 347.396 113.521 346.938 101.562C344.146 100.729 340.667 100.188 336.5 99.9375C335.542 97.4375 335.542 94.7917 336.5 92C342.792 91.6667 349.875 89.7917 357.75 86.375C362.25 86.7083 365.604 88.0625 367.812 90.4375C367.646 110.938 367.812 126.458 368.312 137C368.438 138.875 371.271 140.146 376.812 140.812ZM427.438 143.125C426.938 144.083 426.938 145.104 427.438 146.188C438.271 145.938 449.125 145.938 460 146.188C460.583 145.188 460.583 144.167 460 143.125C449.833 142.625 444.708 140.625 444.625 137.125L444 105.688C443.792 99.9792 442.854 95.8125 441.188 93.1875C439.562 90.5208 436.688 89.1875 432.562 89.1875C425.646 89.1875 417.417 93.9583 407.875 103.5V91.0625C407.542 90.3958 406.812 89.8542 405.688 89.4375C399.896 92.1458 393.875 93.8542 387.625 94.5625C387.375 95.5625 387.375 96.5417 387.625 97.5C392.417 97.75 395.958 98.6042 398.25 100.062C398.708 112.521 398.708 124.875 398.25 137.125C398.167 140.208 394.583 142.208 387.5 143.125C387 144.083 387 145.104 387.5 146.188C398.333 145.771 409.229 145.771 420.188 146.188C420.688 145.104 420.688 144.083 420.188 143.125C412.396 142.292 408.458 140.292 408.375 137.125C408.042 128.458 407.875 118.583 407.875 107.5C416.25 100.125 422.812 96.4375 427.562 96.4375C432.104 96.4375 434.375 100.208 434.375 107.75L434.25 137.125C434.25 139.167 433.625 140.604 432.375 141.438C431.125 142.229 429.479 142.792 427.438 143.125ZM425.438 148.375C424.396 145.917 424.396 143.396 425.438 140.812C426.771 140.812 428.146 140.458 429.562 139.75C430.979 139 431.688 138.125 431.688 137.125L431.812 107.75C431.812 103.208 430.917 100.438 429.125 99.4375C426.042 100.188 421.896 102.438 416.688 106.188C416.688 117.646 416.854 127.917 417.188 137C417.396 139.208 419.062 140.479 422.188 140.812C423.229 143.396 423.229 145.917 422.188 148.375C409.979 147.958 397.708 147.958 385.375 148.375C384.333 145.917 384.333 143.396 385.375 140.812C392.167 139.896 395.604 138.625 395.688 137C396.146 125.25 396.146 113.438 395.688 101.562C392.896 100.729 389.458 100.188 385.375 99.9375C384.417 97.4375 384.417 94.7917 385.375 92C391.667 91.6667 398.75 89.7917 406.625 86.375C411.125 86.7083 414.479 88.0625 416.688 90.4375V92.5C422.604 88.5833 429.396 86.625 437.062 86.625C442.688 86.625 446.688 88.1667 449.062 91.25C451.479 94.2917 452.729 99.1042 452.812 105.688C452.979 122.229 453.188 132.708 453.438 137.125C453.521 138.833 456.458 140.062 462.25 140.812C463.208 143.562 463.125 146.083 462 148.375C449.792 148.125 437.604 148.125 425.438 148.375ZM484.688 109.75C484.688 103.958 485.771 99.7708 487.938 97.1875C490.146 94.5625 492.917 93.25 496.25 93.25C498.708 93.25 500.979 94.4375 503.062 96.8125C505.188 99.1458 506.25 103.083 506.25 108.625C506.25 120.5 503 126.438 496.5 126.438C488.625 126.438 484.688 120.875 484.688 109.75ZM484.438 162.625C484.438 158.042 487.083 154.333 492.375 151.5C495.708 151.167 500.833 151 507.75 151C512.708 151 516.021 151.917 517.688 153.75C519.354 155.583 520.188 158.25 520.188 161.75C520.188 164.75 518.583 167.854 515.375 171.062C512.167 174.312 507.375 175.938 501 175.938C495.25 175.938 491.042 174.625 488.375 172C485.75 169.417 484.438 166.292 484.438 162.625ZM524.625 91.875C525.75 91.9583 526.312 92.5417 526.312 93.625C526.312 95 525.458 95.8125 523.75 96.0625C522.292 96.2292 520.5 95.8958 518.375 95.0625C517.25 94.6458 515.812 94.0625 514.062 93.3125C512.312 92.5208 511.083 91.9792 510.375 91.6875C509.667 91.3542 508.688 90.9792 507.438 90.5625C506.188 90.1458 505.104 89.875 504.188 89.75C503.312 89.625 502.208 89.5 500.875 89.375C499.583 89.25 498.125 89.1875 496.5 89.1875C490.167 89.1875 484.792 91.3125 480.375 95.5625C476 99.8125 473.812 104.5 473.812 109.625C473.812 117.917 477.583 124.146 485.125 128.312C478.375 133.354 475 137.875 475 141.875C475 146.917 479 150.042 487 151.25C478.833 155.667 474.75 160.958 474.75 167.125C474.75 171.125 476.625 174.458 480.375 177.125C484.125 179.833 489.625 181.188 496.875 181.188C505.5 181.188 512.792 178.333 518.75 172.625C524.75 166.917 527.75 161.104 527.75 155.188C527.75 145.646 521.938 140.875 510.312 140.875C509.021 140.875 507.312 140.917 505.188 141C503.062 141.083 501.604 141.125 500.812 141.125C494.438 141.125 489.938 140.708 487.312 139.875C484.729 139 483.438 137.625 483.438 135.75C483.438 133.375 485.271 131.417 488.938 129.875C491.479 130.292 494.167 130.5 497 130.5C502.625 130.5 507.375 128.542 511.25 124.625C515.167 120.708 517.125 115.417 517.125 108.75C517.125 103.458 516.125 99.4583 514.125 96.75L514.438 96.4375C515.104 96.8958 516 97.5417 517.125 98.375C518.292 99.1667 519.167 99.7292 519.75 100.062C520.375 100.396 521.167 100.729 522.125 101.062C523.125 101.396 524.104 101.562 525.062 101.562C526.646 101.562 527.979 100.958 529.062 99.75C530.146 98.5 530.688 97.0208 530.688 95.3125C530.688 93.5208 530.167 92.0208 529.125 90.8125C528.125 89.5625 526.625 88.9375 524.625 88.9375C524.042 90.0208 524.042 91 524.625 91.875ZM525.438 104.125C525.771 105.5 525.938 107.042 525.938 108.75C525.938 116.167 523.562 122.083 518.812 126.5C514.104 130.875 508.333 133.062 501.5 133.062H493.688C492.479 134.438 492.125 135.667 492.625 136.75C493.167 137.792 494.167 138.312 495.625 138.312H516.562C529.896 138.312 536.562 143.938 536.562 155.188C536.562 158.188 535.667 161.333 533.875 164.625C532.083 167.917 529.583 170.979 526.375 173.812C523.167 176.688 518.958 179.062 513.75 180.938C508.542 182.812 502.917 183.75 496.875 183.75C488.75 183.75 482.604 182.167 478.438 179C474.271 175.875 472.188 171.917 472.188 167.125C472.188 161.833 474.958 156.917 480.5 152.375C475.125 150.5 472.438 147 472.438 141.875C472.438 137.458 475.167 132.979 480.625 128.438C474.375 123.938 471.25 117.667 471.25 109.625C471.25 103.917 473.708 98.6667 478.625 93.875C483.542 89.0417 489.5 86.625 496.5 86.625C501.708 86.625 505.542 86.8958 508 87.4375C510.5 87.9792 513.625 89.0208 517.375 90.5625C519.25 87.7708 521.667 86.375 524.625 86.375C527.542 86.375 529.708 87.2292 531.125 88.9375C532.542 90.6458 533.25 92.7708 533.25 95.3125C533.25 97.7708 532.542 99.8542 531.125 101.562C529.708 103.271 527.812 104.125 525.438 104.125ZM493.312 162.625C493.312 165.292 494.083 167.625 495.625 169.625C497.208 171.625 499.75 172.833 503.25 173.25C508.042 172.833 511.625 171.354 514 168.812C516.417 166.312 517.625 163.958 517.625 161.75C517.625 159.167 517.042 157.146 515.875 155.688C514.708 154.271 512.479 153.562 509.188 153.562C505.229 153.562 501.333 153.729 497.5 154.062C494.708 156.438 493.312 159.292 493.312 162.625ZM493.562 109.75C493.562 117.625 495.271 122.208 498.688 123.5C502.021 122.208 503.688 117.25 503.688 108.625C503.688 101.792 501.938 97.6875 498.438 96.3125C495.188 97.6875 493.562 102.167 493.562 109.75Z" fill="white"/>
<path d="M568.25 88.25C581.208 88.7083 594.167 88.7083 607.125 88.25C608.083 91.0833 608.083 93.6042 607.125 95.8125C604.417 96.2292 602.604 96.7292 601.688 97.3125C600.812 97.8542 600.625 98.8542 601.125 100.312L607.938 118.625L615.625 100.312C616.292 98.7708 616.229 97.75 615.438 97.25C614.688 96.7083 612.958 96.2292 610.25 95.8125C609.292 93.2708 609.292 90.75 610.25 88.25C619.042 88.5 627.771 88.5 636.438 88.25C637.396 90.75 637.396 93.2708 636.438 95.8125C633.312 96.0625 631.083 96.5417 629.75 97.25C628.417 97.9167 627.417 99.0208 626.75 100.562L604.75 150.375H598.188L578.625 100.438C578 98.9792 576.896 97.9375 575.312 97.3125C573.771 96.6458 571.417 96.1458 568.25 95.8125C567.292 93.2708 567.292 90.75 568.25 88.25ZM605.25 90.5625C593.542 90.9792 581.854 90.9792 570.188 90.5625C569.729 91.6875 569.729 92.6667 570.188 93.5C573.312 93.875 575.688 94.4375 577.312 95.1875C578.938 95.9375 580.188 97.3958 581.062 99.5625L600 147.812H603.062L624.438 99.5625C626.229 95.7708 629.604 93.75 634.562 93.5C634.979 92.6667 634.979 91.6875 634.562 90.5625C627.146 90.8125 619.667 90.8125 612.125 90.5625C611.708 91.6875 611.708 92.6667 612.125 93.5C613.75 93.5833 615.042 93.7917 616 94.125C617 94.4167 617.896 95.0208 618.688 95.9375C619.521 96.8125 619.521 98.0208 618.688 99.5625L604.188 133.812L591.812 99.5625C591.354 98.4375 591.354 97.5 591.812 96.75C592.312 95.9583 593.292 95.3542 594.75 94.9375C596.208 94.5208 597.688 94.2292 599.188 94.0625C600.729 93.8542 602.75 93.6667 605.25 93.5C605.667 92.6667 605.667 91.6875 605.25 90.5625ZM687.5 130.875C687.833 120.458 687.833 110.021 687.5 99.5625C687.5 98.1042 684.354 96.8542 678.062 95.8125C677.104 93.2708 677.104 90.75 678.062 88.25H705.062C706.229 88.7083 707.062 89.2083 707.562 89.75C708.104 90.2917 708.583 91.0833 709 92.125C709 92.875 708.896 94.0625 708.688 95.6875C708.479 97.3125 708.375 98.6042 708.375 99.5625C707.958 113.271 707.958 125.208 708.375 135.375C711.375 136.333 714.542 136.896 717.875 137.062C718.792 139.521 718.792 142.167 717.875 145C712.417 145.333 705.667 147.208 697.625 150.625C693.083 150.292 689.708 148.917 687.5 146.5V144.875C681.792 148.542 675.021 150.375 667.188 150.375C661.521 150.375 657.5 148.833 655.125 145.75C652.75 142.667 651.521 137.833 651.438 131.25C651.521 120.792 651.521 110.229 651.438 99.5625C651.438 98.1042 648.271 96.8542 641.938 95.8125C641.021 93.2708 641.021 90.75 641.938 88.25H669.062C670.271 88.7083 671.125 89.2083 671.625 89.75C672.167 90.2917 672.646 91.0833 673.062 92.125C673.062 92.875 672.958 94.0625 672.75 95.6875C672.542 97.3125 672.438 98.6042 672.438 99.5625C672.146 109.271 672.146 119.167 672.438 129.25C672.604 134 673.458 136.771 675 137.562C678.042 136.771 682.208 134.542 687.5 130.875ZM690.062 99.5625C690.312 110.396 690.312 121.271 690.062 132.188C682.312 137.729 676.333 140.5 672.125 140.5C666.417 140.5 663.562 136.75 663.562 129.25C663.312 119.167 663.312 109.271 663.562 99.5625C663.562 98.4375 663.667 97.0833 663.875 95.5C664.125 93.9167 664.25 92.9167 664.25 92.5C663.792 91.5417 663.188 90.8958 662.438 90.5625C656.271 90.9792 650.125 90.9792 644 90.5625C643.667 91.5208 643.667 92.5 644 93.5C650.583 94.5417 653.917 96.5625 654 99.5625C654.083 110.146 654.083 120.708 654 131.25C653.917 136.917 654.896 141.104 656.938 143.812C658.979 146.479 662.396 147.812 667.188 147.812C673.479 147.812 681.104 143.917 690.062 136.125V145.25C690.396 145.917 691.125 146.458 692.25 146.875C698.208 144.667 705.938 143.188 715.438 142.438C715.771 141.396 715.771 140.417 715.438 139.5C708.271 139.208 702.979 138.354 699.562 136.938C699.229 122.062 699.229 109.604 699.562 99.5625C699.562 98.4375 699.667 97.0833 699.875 95.5C700.083 93.9167 700.188 92.9167 700.188 92.5C699.771 91.5417 699.167 90.8958 698.375 90.5625C692.333 90.8958 686.229 90.8958 680.062 90.5625C679.729 91.5208 679.729 92.5 680.062 93.5C686.646 94.5417 689.979 96.5625 690.062 99.5625ZM758.188 93.25C761.521 93.25 763.938 94.3333 765.438 96.5C766.938 98.625 767.688 101.292 767.688 104.5C767.688 105.708 767.479 107.083 767.062 108.625H742.688C743.979 103.417 746.062 99.5625 748.938 97.0625C751.854 94.5208 754.938 93.25 758.188 93.25ZM742.062 112.875H776.125C776.792 110.792 777.125 108.646 777.125 106.438C777.125 101.562 775.729 97.4792 772.938 94.1875C770.188 90.8542 765.792 89.1875 759.75 89.1875C751.875 89.1875 745.25 92.0417 739.875 97.75C734.5 103.458 731.812 110.708 731.812 119.5C731.812 128.875 734.375 135.938 739.5 140.688C744.625 145.438 750.646 147.812 757.562 147.812C762.688 147.812 767.438 146.438 771.812 143.688C776.229 140.896 779.458 136.708 781.5 131.125C780.917 130.458 780.104 130 779.062 129.75C778.896 130 778.396 130.688 777.562 131.812C776.771 132.896 776.188 133.688 775.812 134.188C775.438 134.646 774.75 135.333 773.75 136.25C772.792 137.125 771.854 137.771 770.938 138.188C770.062 138.604 768.938 139.021 767.562 139.438C766.188 139.812 764.688 140 763.062 140C756.646 140 751.542 138.104 747.75 134.312C743.958 130.479 741.979 125.333 741.812 118.875C741.812 117.417 741.896 115.417 742.062 112.875ZM778.062 126.812C780.688 127.396 782.812 128.708 784.438 130.75C782.062 137.25 778.396 142.146 773.438 145.438C768.479 148.729 763.188 150.375 757.562 150.375C749.896 150.375 743.25 147.792 737.625 142.625C732.042 137.458 729.25 129.75 729.25 119.5C729.25 110.208 732.104 102.417 737.812 96.125C743.562 89.7917 751.688 86.625 762.188 86.625C778.062 86.625 786 93.2292 786 106.438C786 109.021 785.396 112.021 784.188 115.438H750.625V119.5C750.833 124.542 752.208 128.646 754.75 131.812C757.292 134.938 760.792 136.771 765.25 137.312C767.875 137.062 770.042 136.167 771.75 134.625C773.458 133.083 775.562 130.479 778.062 126.812ZM765.125 104.5C765.125 99.9167 763.583 97.1458 760.5 96.1875C756.833 97.3125 754.104 100.604 752.312 106.062H765C765 105.896 765.021 105.646 765.062 105.312C765.104 104.979 765.125 104.708 765.125 104.5Z" fill="#D1451E"/>
<g clip-path="url(#clip0_31_412)">
<path fill-rule="evenodd" clip-rule="evenodd" d="M244.463 23.1888C244.218 19.3483 246.148 15.5253 249.74 13.534C253.333 11.5427 257.598 11.9315 260.725 14.1748C260.865 14.0889 261.008 14.0057 261.153 13.9253C266.592 10.9103 273.445 12.8755 276.46 18.3147C278.531 22.0496 278.252 26.4487 276.117 29.814L278.967 34.9544C279.82 36.4933 280.531 37.7765 280.959 38.8712C281.41 40.0266 281.631 41.1737 281.283 42.3862C280.935 43.5988 280.141 44.455 279.145 45.1956C278.203 45.8973 276.919 46.6084 275.38 47.4615L264.926 53.2567C263.387 54.1098 262.103 54.8213 261.009 55.2489C259.853 55.7004 258.706 55.9205 257.494 55.5727C256.281 55.2252 255.425 54.4306 254.684 53.4355C253.983 52.4926 253.271 51.2094 252.418 49.6704L249.569 44.5299C245.584 44.5566 241.706 42.4621 239.635 38.7272C236.62 33.288 238.585 26.4345 244.025 23.4195C244.17 23.3391 244.316 23.2622 244.463 23.1888ZM245.115 26.1838C241.35 28.5019 240.039 33.3961 242.204 37.3031C243.858 40.2861 247.075 41.8582 250.272 41.556C250.853 41.501 251.412 41.7957 251.695 42.3063L254.226 46.8726L275.636 35.0049L273.105 30.4385C272.822 29.928 272.868 29.2981 273.223 28.8344C275.173 26.2833 275.545 22.7218 273.891 19.7388C271.726 15.8319 266.88 14.3499 262.919 16.3148C263.21 16.6993 263.477 17.1087 263.717 17.5417L264.192 18.3981C264.585 19.1076 264.329 20.0015 263.619 20.3948C262.91 20.788 262.016 20.5317 261.623 19.8222L261.148 18.9658C260.746 18.2416 260.242 17.614 259.665 17.0893C257.399 15.0297 253.988 14.5382 251.165 16.1032C248.341 17.6682 246.95 20.8215 247.496 23.8347C247.635 24.6023 247.9 25.3622 248.302 26.0865L248.777 26.9429C249.17 27.6523 248.914 28.5463 248.204 28.9395C247.495 29.3328 246.601 29.0765 246.207 28.367L245.733 27.5106C245.493 27.0776 245.287 26.6342 245.115 26.1838ZM277.057 37.5758L255.653 49.4401C256.201 50.4113 256.633 51.134 257.041 51.6816C257.585 52.4132 257.956 52.6497 258.303 52.7491C258.65 52.8486 259.09 52.8447 259.94 52.5129C260.829 52.1655 261.939 51.5534 263.59 50.6382L273.867 44.9417C275.518 44.0264 276.626 43.4088 277.392 42.8391C278.123 42.2946 278.36 41.9235 278.459 41.5766C278.559 41.2297 278.555 40.7896 278.223 39.9402C277.974 39.3044 277.591 38.555 277.057 37.5758Z" fill="#D1451E"/>
</g>
<defs>
<clipPath id="clip0_31_412">
<rect width="47" height="47" fill="white" transform="translate(228 22.7861) rotate(-29)"/>
</clipPath>
</defs>
</svg>
